# xmcd CD database file
#
# Track frame offsets:
#	150
#	2678
#	29450
#	51729
#	76571
#	105456
#	124342
#	149365
#	170233
#	187999
#	214227
#	242441
#
# Disc length: 3474 seconds
#
# Revision: 0
# Processed by: cddbd v1.5.1PL0 Copyright (c) Steve Scherf et al.
# Submitted via: CDex 1.51
#
DISCID=a30d900c
DTITLE=Fourplay - The Best of Fourplay
DYEAR=1900
DGENRE=Jazz
TTITLE0=Max-O-Man
TTITLE1=101 Eastbound
TTITLE2=Higher Ground
TTITLE3=4 Play and Pleasure
TTITLE4=Chant
TTITLE5=After the Dance
TTITLE6=Bali Run
TTITLE7=Play Lady Play
TTITLE8=Between the Sheets
TTITLE9=Amoroso
TTITLE10=Any Time of Day
TTITLE11=Why Can't It Wait Till Morning
EXTD=
EXTT0=
EXTT1=
EXTT2=
EXTT3=
EXTT4=
EXTT5=
EXTT6=
EXTT7=
EXTT8=
EXTT9=
EXTT10=
EXTT11=
PLAYORDER=
